<?xml version="1.0" encoding="UTF-8" standalone="no"?>
<svg width="90px" height="69px" viewBox="0 0 90 69" version="1.1" xmlns="http://www.w3.org/2000/svg" xmlns:xlink="http://www.w3.org/1999/xlink">
    <!-- Generator: Sketch 3.7 (28169) - http://www.bohemiancoding.com/sketch -->
    <title>internet</title>
    <desc>Created with Sketch.</desc>
    <defs>
        <polygon id="path-1" points="45.0088816 0.112203947 0.0177631579 0.112203947 0.0177631579 68.0921053 90 68.0921053 90 0.112203947"></polygon>
    </defs>
    <g id="Web" stroke="none" stroke-width="1" fill="none" fill-rule="evenodd">
        <g id="Static-Page" transform="translate(-452.000000, -1027.000000)">
            <g id="internet" transform="translate(452.000000, 1027.000000)">
                <path d="M21.6535855,26.3892434 C21.4013487,25.8456908 20.8554276,25.4975329 20.2565132,25.4975329 L20.2529605,25.4975329 C19.6516776,25.4987171 19.1069408,25.8492434 18.8570724,26.3960526 L11.2269079,43.0617434 C10.873125,43.835625 11.2129934,44.7492434 11.9853947,45.1030263 C12.1938158,45.1977632 12.4111184,45.2430592 12.6251645,45.2430592 C13.2089803,45.2430592 13.7676316,44.9088158 14.0266776,44.3433553 L15.9394737,40.1636842 L24.6440132,40.1636842 L26.5846382,44.3501645 C26.9419737,45.1213816 27.8567763,45.4568092 28.6279934,45.0994737 C29.3995066,44.7421382 29.7349342,43.8261513 29.3773026,43.0549342 L21.6535855,26.3892434 Z M17.3492763,37.0841447 L20.2656908,30.7166447 L23.2170395,37.0841447 L17.3492763,37.0841447 Z" id="Fill-1" fill="#F5C000"></path>
                <path d="M39.4327303,25.306875 L31.9899671,25.306875 C31.14,25.306875 30.4504934,25.9960855 30.4504934,26.8460526 L30.4504934,43.7024013 C30.4504934,44.5526645 31.14,45.241875 31.9899671,45.241875 C32.8411184,45.241875 33.5303289,44.5526645 33.5303289,43.7024013 L33.5303289,37.299375 L39.4327303,37.299375 C42.7390461,37.299375 45.4289803,34.6094408 45.4289803,31.3043092 C45.4289803,27.9968092 42.7390461,25.306875 39.4327303,25.306875 L39.4327303,25.306875 Z M39.4327303,34.2207237 L33.5303289,34.2207237 L33.5303289,28.3864145 L39.4327303,28.3864145 C41.0414803,28.3864145 42.350625,29.694375 42.350625,31.303125 C42.350625,32.9115789 41.0414803,34.2207237 39.4327303,34.2207237 L39.4327303,34.2207237 Z" id="Fill-2" fill="#F5C000"></path>
                <g id="Group-6">
                    <mask id="mask-2" fill="white">
                        <use xlink:href="#path-1"></use>
                    </mask>
                    <g id="Clip-4"></g>
                    <path d="M48.1535526,25.306875 C47.3024013,25.306875 46.6131908,25.9960855 46.6131908,26.8460526 L46.6131908,43.7024013 C46.6131908,44.5526645 47.3024013,45.241875 48.1535526,45.241875 C49.0035197,45.241875 49.6930263,44.5526645 49.6930263,43.7024013 L49.6930263,26.8460526 C49.6930263,25.9960855 49.0035197,25.306875 48.1535526,25.306875 L48.1535526,25.306875 Z" id="Fill-3" fill="#F5C000" mask="url(#mask-2)"></path>
                    <path d="M87.2325,0.112203947 L2.7675,0.112203947 C1.24075658,0.112203947 0,1.35444079 0,2.87970395 L0,65.3249013 C0,66.8501645 1.24075658,68.0921053 2.7675,68.0921053 L87.2336842,68.0921053 C88.7592434,68.0921053 90,66.8501645 90,65.3249013 L90,2.87970395 C90,1.35444079 88.7592434,0.112203947 87.2325,0.112203947 L87.2325,0.112203947 Z M66.5401974,50.5083553 C67.7637829,47.6206579 70.5795395,45.7540461 73.7159211,45.7540461 C74.7600987,45.7540461 75.7814803,45.9621711 76.7504605,46.3727961 C80.7045395,48.0472697 82.5593092,52.6269079 80.8860197,56.581875 C79.6624342,59.4683882 76.8451974,61.335 73.7111842,61.335 L73.7102961,61.335 C72.6658224,61.335 71.6447368,61.126875 70.6766447,60.71625 C68.7605921,59.9056579 67.2755921,58.3963816 66.4940132,56.4687829 C65.7133224,54.5397039 65.7296053,52.4235197 66.5401974,50.5083553 L66.5401974,50.5083553 Z M75.9952303,7.99578947 C77.6155263,7.99578947 78.9291118,9.30967105 78.9291118,10.9284868 C78.9291118,12.5499671 77.6155263,13.8626645 75.9952303,13.8626645 C74.3752303,13.8626645 73.0613487,12.5499671 73.0613487,10.9284868 C73.0613487,9.30967105 74.3752303,7.99578947 75.9952303,7.99578947 L75.9952303,7.99578947 Z M67.1959539,7.99578947 C68.8147697,7.99578947 70.1286513,9.30967105 70.1286513,10.9284868 C70.1286513,12.5499671 68.8147697,13.8626645 67.1959539,13.8626645 C65.5756579,13.8626645 64.2617763,12.5499671 64.2617763,10.9284868 C64.2617763,9.30967105 65.5756579,7.99578947 67.1959539,7.99578947 L67.1959539,7.99578947 Z M58.3963816,7.99578947 C60.0154934,7.99578947 61.3278947,9.30967105 61.3278947,10.9284868 C61.3278947,12.5499671 60.0154934,13.8626645 58.3963816,13.8626645 C56.7749013,13.8626645 55.4625,12.5499671 55.4625,10.9284868 C55.4625,9.30967105 56.7749013,7.99578947 58.3963816,7.99578947 L58.3963816,7.99578947 Z M5.03763158,63.4733882 L5.03763158,22.5971053 L84.9623684,22.5971053 L84.9623684,38.5309539 C84.5982237,38.0093092 84.0916776,37.5791447 83.46375,37.3129934 L78.58125,35.2453618 C78.1475329,35.0615132 77.6883553,34.9679605 77.2188158,34.9679605 C75.8078289,34.9679605 74.5416118,35.8063816 73.9924342,37.1048684 L73.6951974,37.8059211 C71.510625,37.8358224 69.3423355,38.34 67.3647039,39.2722697 L66.7909539,38.7737171 C66.5123684,38.5321382 66.1988487,38.3364474 65.8589803,38.1931579 C65.4228947,38.0093092 64.9640132,37.9157566 64.4921053,37.9157566 C63.4801974,37.9157566 62.5168421,38.3550987 61.8507237,39.1230592 L58.3756579,43.1289474 C57.7637171,43.8368092 57.4632237,44.7385855 57.5277632,45.6720395 C57.5949671,46.6051974 58.0215789,47.4563487 58.7270724,48.0671053 L59.2996382,48.5641776 C58.6474342,50.6596382 58.4564803,52.8696711 58.7398026,55.0403289 L58.0887829,55.4325987 C56.4350329,56.4270395 55.8994737,58.5825987 56.8953947,60.2387171 L58.98375,63.7069737 L5.27240132,63.7069737 C5.14273026,63.7069737 5.03763158,63.6027632 5.03763158,63.4733882 L5.03763158,63.4733882 Z" id="Fill-5" fill="#4A4A4A" mask="url(#mask-2)"></path>
                </g>
            </g>
        </g>
    </g>
</svg>