<?xml version="1.0" encoding="UTF-8" standalone="no"?>
<svg width="40px" height="40px" viewBox="0 0 40 40" version="1.1" xmlns="http://www.w3.org/2000/svg" xmlns:xlink="http://www.w3.org/1999/xlink">
    <!-- Generator: Sketch 3.7 (28169) - http://www.bohemiancoding.com/sketch -->
    <title>cancel</title>
    <desc>Created with Sketch.</desc>
    <defs></defs>
    <g id="Web" stroke="none" stroke-width="1" fill="none" fill-rule="evenodd">
        <g id="Static-Page" transform="translate(-763.000000, -620.000000)" fill="#D0011B">
            <g id="cancel" transform="translate(763.000000, 620.000000)">
                <path d="M20,0 C9,0 0,9 0,20 C0,31 9,40 20,40 C31,40 40,31 40,20 C40,9 31,0 20,0 L20,0 Z M30,27.2 L27.2,30 L20,22.8 L12.8,30 L10,27.2 L17.2,20 L10,12.8 L12.8,10 L20,17.2 L27.2,10 L30,12.8 L22.8,20 L30,27.2 L30,27.2 Z" id="Shape"></path>
            </g>
        </g>
    </g>
</svg>