<?xml version="1.0" encoding="UTF-8" standalone="no"?>
<svg width="90px" height="90px" viewBox="0 0 90 90" version="1.1" xmlns="http://www.w3.org/2000/svg" xmlns:xlink="http://www.w3.org/1999/xlink">
    <!-- Generator: Sketch 3.7 (28169) - http://www.bohemiancoding.com/sketch -->
    <title>Group</title>
    <desc>Created with Sketch.</desc>
    <defs></defs>
    <g id="Web" stroke="none" stroke-width="1" fill="none" fill-rule="evenodd">
        <g id="Static-Page" transform="translate(-899.000000, -1016.000000)" fill="#FFCA0A">
            <g id="Group" transform="translate(899.000000, 1016.000000)">
                <g id="tag">
                    <path d="M46.2036805,41.3762155 C44.9370443,41.3762155 43.8870438,41.8126585 42.9929333,42.7104285 C42.2098242,43.4993926 41.7789922,44.4017977 41.68458,45.4605808 L48.2268343,41.8307115 C47.6196198,41.5257625 46.9506837,41.3762155 46.2036805,41.3762155 L46.2036805,41.3762155 Z" id="Fill-1"></path>
                    <path d="M63.0690693,41.3762155 C61.802677,41.3762155 60.7524326,41.8126585 59.858566,42.7104285 C59.1086353,43.4652383 58.6817067,44.3256825 58.5646063,45.3254273 L65.0590447,41.8146102 C64.4606127,41.5201514 63.8019228,41.3762155 63.0690693,41.3762155 L63.0690693,41.3762155 Z" id="Fill-2"></path>
                    <path d="M83.4664996,52.0674843 C86.2490985,50.2712126 89.4034912,48.2356169 89.4034912,44.8306781 C89.4034912,41.4257392 86.2490985,39.3901435 83.4664996,37.5938718 C82.5096916,36.9773868 80.7629436,35.8500513 80.359679,35.2582062 C80.3901739,34.5129108 81.418462,32.5002472 81.9227257,31.5129443 C83.4006307,28.618856 85.0758986,25.3398002 83.4169759,22.4723035 C81.7407321,19.5733361 78.0308443,19.3893908 74.7583753,19.2254503 C73.5898106,19.167388 71.4515081,19.0615097 70.8016007,18.7309449 C70.470792,18.0810376 70.3651577,15.942491 70.3068514,14.7731945 C70.1431548,11.5007255 69.9582337,7.79181351 67.0602421,6.11556971 C66.2759132,5.66107369 65.3830225,5.4312641 64.4071856,5.4312641 C62.2840085,5.4312641 60.1159429,6.538595 58.0193574,7.60981993 C56.7690664,8.24826121 55.0718421,9.11553624 54.2684844,9.16969518 C53.6759075,8.75911182 52.5532071,7.01992654 51.9384299,6.06604599 C50.1421582,3.28320318 48.1065625,0.129054427 44.7016236,0.129054427 C41.2966848,0.129054427 39.261333,3.28320318 37.4648173,6.06604599 C36.8493082,7.02090238 35.7249002,8.76203933 35.1330551,9.17067102 C34.3497021,9.12505065 32.6400359,8.25216456 31.3841338,7.60981993 C29.2875483,6.538595 27.1185068,5.4312641 24.9963056,5.4312641 C24.0204687,5.4312641 23.127578,5.66107369 22.3432491,6.11556971 C19.4452575,7.79181351 19.2603364,11.5007255 19.0963958,14.7731945 C19.0393094,15.9434669 18.9324552,18.0810376 18.6018905,18.7309449 C17.9519831,19.0615097 15.8144124,19.167388 14.6451159,19.2264261 C11.3716711,19.3893908 7.66373492,19.5743119 5.98651529,22.4723035 C4.32734864,25.3398002 6.0026166,28.618856 7.48076551,31.5129443 C7.98478525,32.5002472 9.0140492,34.5129108 9.04356827,35.2582062 C8.64054764,35.8500513 6.89379962,36.9773868 5.93699157,37.5948476 C3.15439271,39.3901435 0,41.4267151 0,44.8306781 C0,48.2356169 3.15439271,50.2712126 5.93699157,52.0674843 C6.89379962,52.6849451 8.64054764,53.8125246 9.04356827,54.4041257 C9.0140492,55.1494212 7.98478525,57.1620847 7.48076551,58.1493877 C6.0026166,61.0425001 4.32734864,64.3227757 5.98651529,67.1902724 C7.66275908,70.08802 11.3726469,70.2729411 14.6451159,70.4359059 C15.8134366,70.4939681 17.9519831,70.6008223 18.6018905,70.9306551 C18.9324552,71.5805625 19.0383335,73.7188651 19.0963958,74.8881616 C19.2603364,78.1606306 19.4442817,81.8695426 22.3432491,83.5467622 C23.127578,84.0015022 24.0204687,84.2310678 24.9963056,84.2310678 C27.1194827,84.2310678 29.2875483,83.1237369 31.3841338,82.0515362 C32.633449,81.4140707 34.3306732,80.5470397 35.134031,80.4926368 C35.7275837,80.9032201 36.8502841,82.6424054 37.4648173,83.5955541 C39.261333,86.3791288 41.2966848,89.5332775 44.7016236,89.5332775 C48.1065625,89.5332775 50.1421582,86.3791288 51.9384299,83.5955541 C52.554183,82.6414296 53.678591,80.8995607 54.2704361,80.4916609 C55.0537891,80.5372813 56.7634554,81.4104113 58.0203333,82.0515362 C60.1169188,83.1227611 62.2849844,84.2310678 64.4081615,84.2310678 C65.3830225,84.2310678 66.2759132,84.0005264 67.061218,83.5467622 C69.9592095,81.8695426 70.1431548,78.1606306 70.3068514,74.8881616 C70.3651577,73.7188651 70.470792,71.5815383 70.8016007,70.9306551 C71.4515081,70.6008223 73.5890788,70.4939681 74.7583753,70.4359059 C78.0315761,70.2729411 81.7407321,70.08802 83.4169759,67.1902724 C85.0758986,64.3227757 83.4006307,61.0425001 81.9227257,58.1493877 C81.418462,57.1620847 80.3901739,55.1484453 80.359679,54.4041257 C80.7629436,53.8125246 82.5096916,52.6849451 83.4664996,52.0674843 L83.4664996,52.0674843 Z M27.8752683,31.2919172 C27.8752683,32.2936138 27.0643479,33.1045342 26.0626513,33.1045342 L25.4461664,33.1045342 C24.4903342,33.1045342 23.7201549,33.4560794 23.1580729,34.1489236 C22.5613486,34.882753 22.2593271,35.5926743 22.2593271,36.2596588 L22.2593271,37.4833582 L25.0819353,37.4833582 C26.082656,37.4833582 26.8945523,38.2942787 26.8945523,39.2959752 L26.8945523,39.7246116 C26.8945523,40.7253323 26.082656,41.5372286 25.0819353,41.5372286 L22.2593271,41.5372286 L22.2593271,52.5334464 C22.2593271,53.535143 21.4474308,54.3460634 20.4467101,54.3460634 L19.9541564,54.3460634 C18.9527038,54.3460634 18.1415394,53.535143 18.1415394,52.5334464 L18.1415394,36.7104954 C18.1415394,34.451921 18.8182823,32.6051497 20.1532272,31.2233647 C21.4932952,29.8357246 23.2741975,29.1316583 25.4461664,29.1316583 L26.0626513,29.1316583 C27.0643479,29.1316583 27.8752683,29.9435546 27.8752683,30.9440314 L27.8752683,31.2919172 Z M36.545335,41.223741 C35.1606225,41.2913177 34.1398971,41.7726492 33.4253406,42.6970107 C32.6246664,43.7318857 32.2187183,44.9611962 32.2187183,46.3488363 L32.2187183,52.5334464 C32.2187183,53.535143 31.406822,54.3460634 30.4063452,54.3460634 L29.9135476,54.3460634 C28.9130709,54.3460634 28.1019065,53.5361188 28.1011746,52.5353981 L28.0897085,39.297683 C28.0887327,38.8165954 28.2792648,38.3552685 28.619344,38.0151893 C28.9596671,37.6748662 29.420994,37.4833582 29.9020815,37.4833582 L30.4063452,37.4833582 C31.2306834,37.4833582 31.9262112,38.0332423 32.1465064,38.7861005 C33.4368067,37.8253891 34.8395722,37.2859952 36.3289432,37.1813367 C36.8312552,37.144011 37.3247847,37.3203935 37.6926752,37.6624243 C38.0605658,38.0056749 38.2691509,38.4857867 38.2691509,38.9890745 L38.2691509,39.4130757 C38.2691509,40.3793981 37.5106817,41.1761689 36.545335,41.223741 L36.545335,41.223741 Z M54.2658009,49.1848622 C53.8483866,50.2263241 53.1965276,51.1906949 52.3282767,52.0504072 C50.6471538,53.7322621 48.5839906,54.588071 46.2036805,54.588071 C43.8231265,54.588071 41.7609392,53.7351896 40.0742051,52.0543105 C38.3864953,50.3722117 37.5306863,48.3061211 37.5306863,45.9143449 C37.5306863,43.5337908 38.3864953,41.4716036 40.0732293,39.7838937 C41.7599634,38.0971596 43.8231265,37.2423265 46.2036805,37.2423265 C48.3134399,37.2423265 50.0782409,37.8178263 51.5993266,39.0015165 C52.578091,39.763889 53.1021154,40.475762 53.3841322,40.8578022 C53.6939605,41.2771681 53.8074015,41.809731 53.6959121,42.3196058 C53.5851546,42.8285047 53.260201,43.2659236 52.8047291,43.5184214 L42.8892506,49.0199458 C42.9234049,49.0553199 42.9578031,49.09045 42.9929333,49.1258241 C43.886068,50.0196906 44.9360684,50.4532062 46.2036805,50.4532062 C47.4710487,50.4532062 48.5239767,50.0167631 49.4227224,49.1180174 C49.8457477,48.6949921 50.1697256,48.2251266 50.3841657,47.7220827 C50.7064359,46.9662971 51.4954,46.5222913 52.3092479,46.6393917 L52.841079,46.7157509 C53.391695,46.7947937 53.875954,47.1226749 54.1533357,47.6037625 C54.4314492,48.085094 54.4734102,48.6684005 54.2658009,49.1848622 L54.2658009,49.1848622 Z M71.1311896,49.1848622 C70.7137754,50.2263241 70.0621603,51.1906949 69.1939095,52.0504072 C67.5127865,53.7322621 65.4496234,54.588071 63.0690693,54.588071 C60.6887592,54.588071 58.626328,53.7351896 56.9395939,52.0543105 C55.251884,50.3722117 54.396319,48.3061211 54.396319,45.9143449 C54.396319,43.5337908 55.251884,41.4716036 56.938862,39.7838937 C58.6255961,38.0971596 60.6887592,37.2423265 63.0690693,37.2423265 C65.0495302,37.2423265 66.7428512,37.7844039 68.3961628,38.9510169 C69.3978594,39.6570349 69.8713842,40.3249952 70.1543769,40.7253323 L70.249765,40.8578022 C70.5613009,41.2798516 70.6737661,41.8165619 70.5595932,42.3281444 C70.4451763,42.8399708 70.1143676,43.2773897 69.6532847,43.52696 L60.0234824,48.7389047 C59.8985753,48.8064815 59.7700088,48.856981 59.6394906,48.8933309 C59.709019,48.9723737 59.7814749,49.0494648 59.858566,49.1258241 C60.7514567,50.0196906 61.8017012,50.4532062 63.0690693,50.4532062 C64.3366814,50.4532062 65.3886336,50.0167631 66.2883552,49.1180174 C66.7113804,48.6949921 67.0343825,48.2251266 67.2497984,47.7220827 C67.5718246,46.9662971 68.359081,46.5222913 69.1739048,46.6393917 L69.7064678,46.7157509 C70.2573277,46.7947937 70.7406109,47.1226749 71.0187244,47.6037625 C71.2970819,48.085094 71.3390429,48.6684005 71.1311896,49.1848622 L71.1311896,49.1848622 Z" id="Fill-3"></path>
                </g>
            </g>
        </g>
    </g>
</svg>