<?xml version="1.0" encoding="utf-8"?>
<svg version="1.1" xmlns="http://www.w3.org/2000/svg"
     xmlns:xlink="http://www.w3.org/1999/xlink"
     width="16" height="64">

  <defs>
    <symbol id="icon-calendar">
      <path fill="#9b9b9b" d="M12.034 1.504h-0.752v-1.504h-1.504v1.504h-6.017v-1.504h-1.504v1.504h-0.752c-0.827 0-1.504 0.677-1.504 1.504v10.53c0 0.827 0.677 1.504 1.504 1.504h10.53c0.827 0 1.504-0.677 1.504-1.504v-10.53c0-0.827-0.677-1.504-1.504-1.504v0zM12.034 13.538h-10.53v-8.274h10.53v8.274z"></path>
      <path fill="#9b9b9b" d="M3.009 6.769h3.761v3.761h-3.761v-3.761z"></path>
    </symbol>
    <symbol id="icon-close">
      <path fill="#fff" d="M16 1.6l-1.6-1.6-6.4 6.4-6.4-6.4-1.6 1.6 6.4 6.4-6.4 6.4 1.6 1.6 6.4-6.4 6.4 6.4 1.6-1.6-6.4-6.4 6.4-6.4z"></path>
    </symbol>
    <symbol id="icon-pencil">
      <path fill="#fff" d="M0 12.622v3.378h3.378l9.778-9.867-3.378-3.378-9.778 9.867zM15.733 3.556c0.356-0.356 0.356-0.889 0-1.244l-2.044-2.044c-0.356-0.356-0.889-0.356-1.244 0l-1.6 1.6 3.378 3.378 1.511-1.689z"></path>
    </symbol>
    <symbol id="icon-ticket">
      <path fill="#9b9b9b" d="M11.164 5.616c-0.001-0.118-0.206-0.321-0.324-0.32-0.146 0.001-0.244 0.161-0.162 0.282 0.053 0.078 0.125 0.151 0.204 0.203 0.12 0.079 0.284-0.023 0.283-0.166v0zM10.189 4.645c-0.14 0.002-0.241 0.16-0.165 0.277 0.053 0.082 0.128 0.156 0.209 0.211 0.117 0.079 0.274-0.017 0.278-0.158 0.004-0.125-0.198-0.331-0.323-0.33v0zM9.865 4.317c-0-0.12-0.202-0.32-0.323-0.32-0.145 0-0.244 0.162-0.163 0.282 0.053 0.078 0.125 0.151 0.204 0.203 0.12 0.080 0.283-0.021 0.282-0.166v0zM8.89 3.345c-0.139 0.002-0.24 0.161-0.164 0.278 0.053 0.082 0.128 0.156 0.209 0.211 0.116 0.078 0.274-0.018 0.28-0.158 0.004-0.122-0.202-0.332-0.324-0.33v0zM3.048 8.083c0.030-0.143 0.121-0.244 0.221-0.344 1.571-1.568 3.14-3.138 4.71-4.708 0.023-0.023 0.042-0.049 0.051-0.046 0.067 0.054 0.135 0.108 0.201 0.163 0.095 0.079 0.203 0.082 0.279 0.005s0.073-0.184-0.005-0.279c-0.053-0.065-0.102-0.134-0.152-0.202-0.012 0.009-0.024 0.017-0.036 0.026 0.019-0.021 0.037-0.042 0.057-0.062 0.313-0.314 0.627-0.627 0.94-0.941 0.213-0.212 0.417-0.212 0.631 0 0.195 0.194 0.389 0.387 0.582 0.579-0.374 0.65-0.341 1.178 0.087 1.6 0.335 0.33 0.966 0.523 1.587 0.062 0.067 0.072 0.136 0.149 0.207 0.222 0.136 0.139 0.276 0.273 0.411 0.413 0.155 0.162 0.171 0.378 0.020 0.532-0.345 0.354-0.701 0.698-1.053 1.046-0.044-0.041-0.090-0.085-0.136-0.128-0.1-0.094-0.211-0.102-0.293-0.022-0.084 0.081-0.075 0.197 0.021 0.301 0.042 0.045 0.082 0.091 0.127 0.141-0.015 0.016-0.036 0.040-0.058 0.062-1.586 1.586-3.171 3.172-4.759 4.755-0.070 0.070-0.165 0.126-0.259 0.157-0.104 0.034-0.218 0.002-0.297-0.078-0.222-0.221-0.437-0.448-0.66-0.678 0.209-0.267 0.312-0.578 0.257-0.932-0.041-0.257-0.155-0.478-0.342-0.66-0.428-0.419-0.96-0.44-1.591-0.059-0.174-0.174-0.347-0.351-0.526-0.523-0.102-0.098-0.192-0.2-0.221-0.344v-0.058z"></path>
    </symbol>
  </defs>

  <use xlink:href="#icon-calendar" fill="#000"/>
  <use xlink:href="#icon-close" transform="translate(0, 16)" fill="#000"/>
  <use xlink:href="#icon-pencil" transform="translate(0, 32)" fill="#000"/>
  <use xlink:href="#icon-ticket" transform="translate(0, 48)" fill="#000"/>
</svg>
