<?xml version="1.0" encoding="UTF-8" standalone="no"?>
<svg width="60px" height="79px" viewBox="0 0 60 79" version="1.1" xmlns="http://www.w3.org/2000/svg" xmlns:xlink="http://www.w3.org/1999/xlink">
    <!-- Generator: Sketch 3.7 (28169) - http://www.bohemiancoding.com/sketch -->
    <title>lock</title>
    <desc>Created with Sketch.</desc>
    <defs></defs>
    <g id="Web" stroke="none" stroke-width="1" fill="none" fill-rule="evenodd">
        <g id="Static-Page" transform="translate(-1138.000000, -646.000000)" fill="#4A4A4A">
            <g id="Group-4-Copy-2" transform="translate(1093.000000, 610.000000)">
                <g id="lock" transform="translate(45.000000, 36.000000)">
                    <path d="M52.5,26.25 L48.75,26.25 L48.75,18.75 C48.75,8.25 40.5,0 30,0 C19.5,0 11.25,8.25 11.25,18.75 L11.25,26.25 L7.5,26.25 C3.375,26.25 0,29.625 0,33.75 L0,71.25 C0,75.375 3.375,78.75 7.5,78.75 L52.5,78.75 C56.625,78.75 60,75.375 60,71.25 L60,33.75 C60,29.625 56.625,26.25 52.5,26.25 L52.5,26.25 Z M30,60 C25.875,60 22.5,56.625 22.5,52.5 C22.5,48.375 25.875,45 30,45 C34.125,45 37.5,48.375 37.5,52.5 C37.5,56.625 34.125,60 30,60 L30,60 Z M41.625,26.25 L18.375,26.25 L18.375,18.75 C18.375,12.375 23.625,7.125 30,7.125 C36.375,7.125 41.625,12.375 41.625,18.75 L41.625,26.25 L41.625,26.25 Z" id="Shape"></path>
                </g>
            </g>
        </g>
    </g>
</svg>