<?xml version="1.0" encoding="UTF-8" standalone="no"?>
<svg width="31px" height="30px" viewBox="0 0 31 30" version="1.1" xmlns="http://www.w3.org/2000/svg" xmlns:xlink="http://www.w3.org/1999/xlink" xmlns:sketch="http://www.bohemiancoding.com/sketch/ns">
    <!-- Generator: Sketch 3.5 (25232) - http://www.bohemiancoding.com/sketch -->
    <title>Page 1</title>
    <desc>Created with Sketch.</desc>
    <defs></defs>
    <g id="Mobile-App" stroke="none" stroke-width="1" fill="none" fill-rule="evenodd" sketch:type="MSPage">
        <g id="Mobile_Event-List-Root" sketch:type="MSArtboardGroup" transform="translate(-8.000000, -8.000000)">
            <g id="Page-1" sketch:type="MSLayerGroup" transform="translate(8.000000, 8.000000)">
                <path d="M27.9310349,24.3123333 C27.9310349,26.2398333 26.3498483,27.8019167 24.399198,27.8019167 L5.75688573,27.8019167 C3.80623541,27.8019167 2.22504882,26.2398333 2.22504882,24.3123333 L2.22504882,5.89566667 C2.22504882,3.96858333 3.80623541,2.4065 5.75688573,2.4065 L24.399198,2.4065 C26.3498483,2.4065 27.9310349,3.96858333 27.9310349,5.89566667 L27.9310349,24.3123333 Z" id="Fill-1" fill="#FDC90D" sketch:type="MSShapeGroup"></path>
                <g id="Group-2" fill="#FFFFFF" sketch:type="MSShapeGroup">
                    <path d="M5.06114675,2.70833333 C3.66553554,2.70833333 2.53057338,3.82958333 2.53057338,5.20833333 L2.53057338,25 C2.53057338,26.37875 3.66553554,27.5 5.06114675,27.5 L25.0948526,27.5 C26.4904639,27.5 27.625426,26.37875 27.625426,25 L27.625426,5.20833333 C27.625426,3.82958333 26.4904639,2.70833333 25.0948526,2.70833333 L5.06114675,2.70833333 Z M25.0948526,30 L5.06114675,30 C2.27034608,30 0,27.7570833 0,25 L0,5.20833333 C0,2.45125 2.27034608,0.208333333 5.06114675,0.208333333 L25.0948526,0.208333333 C27.8856533,0.208333333 30.1559994,2.45125 30.1559994,5.20833333 L30.1559994,25 C30.1559994,27.7570833 27.8856533,30 25.0948526,30 L25.0948526,30 Z" id="Fill-3"></path>
                    <path d="M24.8485435,19.7204583 C24.8485435,22.502125 22.5663881,24.7567083 19.7507034,24.7567083 L10.405296,24.7567083 C7.58961132,24.7567083 5.30745589,22.502125 5.30745589,19.7204583 L5.30745589,10.4879583 C5.30745589,7.70629167 7.58961132,5.45170833 10.405296,5.45170833 L19.7507034,5.45170833 C22.5663881,5.45170833 24.8485435,7.70629167 24.8485435,10.4879583 L24.8485435,19.7204583 Z" id="Fill-5"></path>
                </g>
            </g>
        </g>
    </g>
</svg>