<?xml version="1.0" encoding="UTF-8" standalone="no"?>
<svg width="90px" height="90px" viewBox="0 0 90 90" version="1.1" xmlns="http://www.w3.org/2000/svg" xmlns:xlink="http://www.w3.org/1999/xlink">
    <!-- Generator: Sketch 3.7 (28169) - http://www.bohemiancoding.com/sketch -->
    <title>Ticket Icon</title>
    <desc>Created with Sketch.</desc>
    <defs>
        <polygon id="path-1" points="0 0.125470588 89.9221765 0.125470588 89.9221765 90 0 90"></polygon>
    </defs>
    <g id="Web" stroke="none" stroke-width="1" fill="none" fill-rule="evenodd">
        <g id="Static-Page" transform="translate(-673.000000, -640.000000)">
            <g id="Ticket-Icon" transform="translate(673.000000, 640.000000)">
                <mask id="mask-2" fill="white">
                    <use xlink:href="#path-1"></use>
                </mask>
                <g id="Clip-2"></g>
                <path d="M73.7519471,37.1860059 C73.7452412,36.1111235 71.8797706,34.2717706 70.8045353,34.2798882 C69.4795941,34.2897706 68.5885941,35.7444176 69.3285353,36.8441824 C69.8078294,37.5573 70.4625353,38.2173 71.1775941,38.6918294 C72.2653588,39.4134176 73.7600647,38.4825353 73.7519471,37.1860059 L73.7519471,37.1860059 Z M64.8871235,28.3607118 C63.6142412,28.3776529 62.6973,29.8162412 63.3918882,30.8755941 C63.8775353,31.6162412 64.5560647,32.2960059 65.2905353,32.7925941 C66.3495353,33.5081824 67.7787706,32.6369471 67.8200647,31.3557706 C67.8565941,30.2226529 66.0184765,28.3455353 64.8871235,28.3607118 L64.8871235,28.3607118 Z M61.9487118,25.3843588 C61.9446529,24.2897118 60.1098882,22.4754176 59.0103,22.4787706 C57.6892412,22.4826529 56.7903,23.9531824 57.5332412,25.0427118 C58.0178294,25.7535353 58.6700647,26.4123 59.3837118,26.8901824 C60.4739471,27.6202412 61.9536529,26.6969471 61.9487118,25.3843588 L61.9487118,25.3843588 Z M53.0849471,16.5456529 C51.8196529,16.5671824 50.9007706,18.0117706 51.5907706,19.0683 C52.0750059,19.8098294 52.7568882,20.4885353 53.4931235,20.9831824 C54.5491235,21.6925941 55.9863,20.8181824 56.0332412,19.5449471 C56.0738294,18.4390059 54.1940647,16.5267706 53.0849471,16.5456529 L53.0849471,16.5456529 Z M-5.29411761e-05,59.6043 C0.268711765,58.3042412 1.09935882,57.3858882 2.00800588,56.4786529 C16.2828882,42.2274176 30.5434765,27.9620647 44.8051235,13.6977706 C45.0124765,13.4904176 45.1901824,13.2534176 45.2674765,13.2820059 C45.8754176,13.7759471 46.4897118,14.2628294 47.0904176,14.7655941 C47.9526529,15.4873588 48.9333,15.5111824 49.6284176,14.8125353 C50.3237118,14.1135353 50.2930059,13.1404765 49.5865941,12.2731235 C49.1034176,11.6800059 48.6620647,11.0531824 48.2020059,10.4411824 C48.0927706,10.5204176 47.9835353,10.5993 47.8739471,10.6785353 C48.0465353,10.4916529 48.2125941,10.2985941 48.3922412,10.1189471 C51.2388882,7.26877059 54.0855353,4.41841765 56.9358882,1.57212353 C58.8696529,-0.358817647 60.7291235,-0.355464706 62.6701235,1.57494706 C64.4387118,3.33382941 66.2057118,5.0943 67.9545353,6.83518235 C64.5599471,12.7405941 64.8514765,17.5395353 68.7477706,21.3694765 C71.7947118,24.3645353 77.5255941,26.1257118 83.1685941,21.9315353 C83.7802412,22.5890647 84.4000059,23.2859471 85.0525941,23.9507118 C86.2887706,25.2093 87.5644765,26.4295941 88.7853,27.7024765 C90.1940647,29.1708882 90.3371824,31.1362412 88.9688294,32.5377706 C85.8295941,35.7532412 82.5977118,38.8785353 79.4041235,42.0398294 C79.0086529,41.6665941 78.5895353,41.2672412 78.1663588,40.8723 C77.2548882,40.0215353 76.2463588,39.9456529 75.4997118,40.6684765 C74.7384176,41.4057706 74.8165941,42.4598294 75.6931235,43.4000647 C76.0714765,43.8059471 76.4348294,44.2255941 76.8445941,44.6830059 C76.7074765,44.8294765 76.5172412,45.0445941 76.3144765,45.2475353 C61.9068882,59.6568882 47.5040647,74.0711824 33.0703588,88.4544176 C32.4343588,89.0879471 31.5682412,89.5974176 30.7148294,89.8771235 C29.7670059,90.1882412 28.7385353,89.8931824 28.0135941,89.1710647 C25.9974176,87.1631824 24.0391235,85.0967118 22.0167706,83.0110059 C23.9184176,80.5840059 24.8533588,77.7546529 24.3477706,74.5465941 C23.9796529,72.2118882 22.9375941,70.2018882 21.2440059,68.5464176 C17.3515941,64.7413588 12.5203588,64.5497118 6.78418235,68.0076529 C5.20441765,66.4310647 3.62853529,64.8202412 2.00800588,63.2553 C1.08541765,62.3643 0.263064706,61.4362412 -5.29411761e-05,60.1337118 L-5.29411761e-05,59.6043 Z" id="Fill-1" fill="#FFCA0A" mask="url(#mask-2)"></path>
            </g>
        </g>
    </g>
</svg>